<?xml version="1.0" encoding="UTF-8" standalone="no"?><svg xmlns="http://www.w3.org/2000/svg" xmlns:xlink="http://www.w3.org/1999/xlink" contentStyleType="text/css" height="371px" preserveAspectRatio="none" style="width:696px;height:371px;background:#FFFFFF;" version="1.1" viewBox="0 0 696 371" width="696px" zoomAndPan="magnify"><defs/><g><rect height="106.5313" style="stroke:#000000;stroke-width:1.5;fill:none;" width="509.5" x="93" y="125.5625"/><rect height="75.3984" style="stroke:#000000;stroke-width:1.5;fill:none;" width="489.5" x="103" y="149.6953"/><line style="stroke:#181818;stroke-width:0.5;fill:none;stroke-dasharray:5.0,5.0;" x1="35" x2="35" y1="36.2969" y2="336.4922"/><line style="stroke:#181818;stroke-width:0.5;fill:none;stroke-dasharray:5.0,5.0;" x1="151" x2="151" y1="36.2969" y2="336.4922"/><line style="stroke:#181818;stroke-width:0.5;fill:none;stroke-dasharray:5.0,5.0;" x1="343.5" x2="343.5" y1="36.2969" y2="336.4922"/><line style="stroke:#181818;stroke-width:0.5;fill:none;stroke-dasharray:5.0,5.0;" x1="514.5" x2="514.5" y1="36.2969" y2="336.4922"/><line style="stroke:#181818;stroke-width:0.5;fill:none;stroke-dasharray:5.0,5.0;" x1="641.5" x2="641.5" y1="36.2969" y2="336.4922"/><rect fill="#E2E2F0" height="30.2969" rx="2.5" ry="2.5" style="stroke:#181818;stroke-width:0.5;" width="61" x="5" y="5"/><text fill="#000000" font-family="sans-serif" font-size="14" lengthAdjust="spacing" textLength="47" x="12" y="24.9951">Hasura</text><rect fill="#E2E2F0" height="30.2969" rx="2.5" ry="2.5" style="stroke:#181818;stroke-width:0.5;" width="61" x="5" y="335.4922"/><text fill="#000000" font-family="sans-serif" font-size="14" lengthAdjust="spacing" textLength="47" x="12" y="355.4873">Hasura</text><rect fill="#E2E2F0" height="30.2969" rx="2.5" ry="2.5" style="stroke:#181818;stroke-width:0.5;" width="77" x="113" y="5"/><text fill="#000000" font-family="sans-serif" font-size="14" lengthAdjust="spacing" textLength="63" x="120" y="24.9951">Postgres</text><rect fill="#E2E2F0" height="30.2969" rx="2.5" ry="2.5" style="stroke:#181818;stroke-width:0.5;" width="77" x="113" y="335.4922"/><text fill="#000000" font-family="sans-serif" font-size="14" lengthAdjust="spacing" textLength="63" x="120" y="355.4873">Postgres</text><rect fill="#E2E2F0" height="30.2969" rx="2.5" ry="2.5" style="stroke:#181818;stroke-width:0.5;" width="188" x="249.5" y="5"/><text fill="#000000" font-family="sans-serif" font-size="14" lengthAdjust="spacing" textLength="174" x="256.5" y="24.9951">BEFORE UPDATE Trigger</text><rect fill="#E2E2F0" height="30.2969" rx="2.5" ry="2.5" style="stroke:#181818;stroke-width:0.5;" width="188" x="249.5" y="335.4922"/><text fill="#000000" font-family="sans-serif" font-size="14" lengthAdjust="spacing" textLength="174" x="256.5" y="355.4873">BEFORE UPDATE Trigger</text><rect fill="#E2E2F0" height="30.2969" rx="2.5" ry="2.5" style="stroke:#181818;stroke-width:0.5;" width="135" x="447.5" y="5"/><text fill="#000000" font-family="sans-serif" font-size="14" lengthAdjust="spacing" textLength="121" x="454.5" y="24.9951">Custom Function</text><rect fill="#E2E2F0" height="30.2969" rx="2.5" ry="2.5" style="stroke:#181818;stroke-width:0.5;" width="135" x="447.5" y="335.4922"/><text fill="#000000" font-family="sans-serif" font-size="14" lengthAdjust="spacing" textLength="121" x="454.5" y="355.4873">Custom Function</text><rect fill="#E2E2F0" height="30.2969" rx="2.5" ry="2.5" style="stroke:#181818;stroke-width:0.5;" width="98" x="592.5" y="5"/><text fill="#000000" font-family="sans-serif" font-size="14" lengthAdjust="spacing" textLength="84" x="599.5" y="24.9951">Actor Table</text><rect fill="#E2E2F0" height="30.2969" rx="2.5" ry="2.5" style="stroke:#181818;stroke-width:0.5;" width="98" x="592.5" y="335.4922"/><text fill="#000000" font-family="sans-serif" font-size="14" lengthAdjust="spacing" textLength="84" x="599.5" y="355.4873">Actor Table</text><polygon fill="#181818" points="139.5,63.4297,149.5,67.4297,139.5,71.4297,143.5,67.4297" style="stroke:#181818;stroke-width:1.0;"/><line style="stroke:#181818;stroke-width:1.0;" x1="35.5" x2="145.5" y1="67.4297" y2="67.4297"/><text fill="#000000" font-family="sans-serif" font-size="13" lengthAdjust="spacing" textLength="85" x="42.5" y="62.3638">UPDATE data</text><polygon fill="#181818" points="331.5,92.5625,341.5,96.5625,331.5,100.5625,335.5,96.5625" style="stroke:#181818;stroke-width:1.0;"/><line style="stroke:#181818;stroke-width:1.0;" x1="151.5" x2="337.5" y1="96.5625" y2="96.5625"/><text fill="#000000" font-family="sans-serif" font-size="13" lengthAdjust="spacing" textLength="168" x="158.5" y="91.4966">Check if trigger should fire</text><polygon fill="#181818" points="162.5,106.5625,152.5,110.5625,162.5,114.5625,158.5,110.5625" style="stroke:#181818;stroke-width:1.0;"/><line style="stroke:#181818;stroke-width:1.0;stroke-dasharray:2.0,2.0;" x1="156.5" x2="342.5" y1="110.5625" y2="110.5625"/><path d="M93,125.5625 L159,125.5625 L159,132.6953 L149,142.6953 L93,142.6953 L93,125.5625 " fill="#EEEEEE" style="stroke:#000000;stroke-width:1.5;"/><rect fill="none" height="106.5313" style="stroke:#000000;stroke-width:1.5;" width="509.5" x="93" y="125.5625"/><text fill="#000000" font-family="sans-serif" font-size="13" font-weight="bold" lengthAdjust="spacing" textLength="21" x="108" y="138.6294">alt</text><text fill="#000000" font-family="sans-serif" font-size="11" font-weight="bold" lengthAdjust="spacing" textLength="155" x="174" y="137.7729">[Yes, trigger must fire]</text><path d="M103,149.6953 L181,149.6953 L181,156.8281 L171,166.8281 L103,166.8281 L103,149.6953 " fill="#EEEEEE" style="stroke:#000000;stroke-width:1.5;"/><rect fill="none" height="75.3984" style="stroke:#000000;stroke-width:1.5;" width="489.5" x="103" y="149.6953"/><text fill="#000000" font-family="sans-serif" font-size="13" font-weight="bold" lengthAdjust="spacing" textLength="33" x="118" y="162.7622">loop</text><text fill="#000000" font-family="sans-serif" font-size="11" font-weight="bold" lengthAdjust="spacing" textLength="201" x="196" y="161.9058">[for each row to be UPDATED]</text><polygon fill="#181818" points="503,183.9609,513,187.9609,503,191.9609,507,187.9609" style="stroke:#181818;stroke-width:1.0;"/><line style="stroke:#181818;stroke-width:1.0;" x1="151.5" x2="509" y1="187.9609" y2="187.9609"/><text fill="#000000" font-family="sans-serif" font-size="13" lengthAdjust="spacing" textLength="24" x="158.5" y="182.895">row</text><polygon fill="#181818" points="162.5,213.0938,152.5,217.0938,162.5,221.0938,158.5,217.0938" style="stroke:#181818;stroke-width:1.0;"/><line style="stroke:#181818;stroke-width:1.0;stroke-dasharray:2.0,2.0;" x1="156.5" x2="514" y1="217.0938" y2="217.0938"/><text fill="#000000" font-family="sans-serif" font-size="13" lengthAdjust="spacing" textLength="84" x="168.5" y="212.0278">modified row</text><polygon fill="#181818" points="629.5,256.2266,639.5,260.2266,629.5,264.2266,633.5,260.2266" style="stroke:#181818;stroke-width:1.0;"/><line style="stroke:#181818;stroke-width:1.0;" x1="151.5" x2="635.5" y1="260.2266" y2="260.2266"/><text fill="#000000" font-family="sans-serif" font-size="13" lengthAdjust="spacing" textLength="87" x="158.5" y="255.1606">UPDATE rows</text><polygon fill="#181818" points="162.5,285.3594,152.5,289.3594,162.5,293.3594,158.5,289.3594" style="stroke:#181818;stroke-width:1.0;"/><line style="stroke:#181818;stroke-width:1.0;stroke-dasharray:2.0,2.0;" x1="156.5" x2="640.5" y1="289.3594" y2="289.3594"/><text fill="#000000" font-family="sans-serif" font-size="13" lengthAdjust="spacing" textLength="92" x="168.5" y="284.2935">UPDATE result</text><polygon fill="#181818" points="46.5,314.4922,36.5,318.4922,46.5,322.4922,42.5,318.4922" style="stroke:#181818;stroke-width:1.0;"/><line style="stroke:#181818;stroke-width:1.0;stroke-dasharray:2.0,2.0;" x1="40.5" x2="150.5" y1="318.4922" y2="318.4922"/><text fill="#000000" font-family="sans-serif" font-size="13" lengthAdjust="spacing" textLength="92" x="52.5" y="313.4263">UPDATE result</text><!--MD5=[bd80de64b20e1cc5b07b99751c09d6a1]
@startuml
participant Hasura as hasura
participant Postgres as postgres
participant "BEFORE UPDATE Trigger" as trigger
participant "Custom Function" as function
participant "Actor Table" as table

hasura -> postgres : UPDATE data
postgres -> trigger : Check if trigger should fire
trigger - -> postgres
alt Yes, trigger must fire
  loop for each row to be UPDATED
    postgres -> function : row
    function - -> postgres : modified row
  end
end

postgres -> table : UPDATE rows
table - -> postgres : UPDATE result 

postgres - -> hasura : UPDATE result
@enduml

PlantUML version 1.2022.2beta8(Unknown compile time)
(GPL source distribution)
Java Runtime: Java(TM) SE Runtime Environment
JVM: Java HotSpot(TM) 64-Bit Server VM
Default Encoding: UTF-8
Language: en
Country: US
--></g></svg>